<svg id="レイヤー_1" data-name="レイヤー 1" xmlns="http://www.w3.org/2000/svg" viewBox="0 0 32 32"><defs><style>.cls-1,.cls-2{fill:#040000;}.cls-2{stroke:#040000;stroke-miterlimit:10;stroke-width:0.04px;}.cls-3{fill:#fff;}</style></defs><path class="cls-1" d="M6.93,22.19a5.82,5.82,0,0,0,0,.67H6.73v-.73a4.83,4.83,0,0,1,0-.67h0A1.86,1.86,0,0,1,4.86,23C3.62,23,2.81,22,2.81,20.53a2.12,2.12,0,0,1,2.05-2.4,1.87,1.87,0,0,1,1.88,1.49h0a5.86,5.86,0,0,1,0-.85v-2a5.7,5.7,0,0,0,0-.67H7a5.7,5.7,0,0,0,0,.67Zm-.2-1.66c0-1.35-.73-2.21-1.87-2.21S3,19.17,3,20.53s.71,2.23,1.85,2.23S6.73,21.91,6.73,20.53Z"/><path class="cls-1" d="M8.5,20.47v.05a2,2,0,0,0,2,2.24,2.11,2.11,0,0,0,1.26-.38A1.54,1.54,0,0,0,12.1,22l.14.14a2.1,2.1,0,0,1-.34.32,2.27,2.27,0,0,1-1.42.47A2.21,2.21,0,0,1,8.3,20.52c0-1.5.8-2.41,2.11-2.41s1.95.79,1.95,2.2v.16Zm3.65-.18c0-1.28-.62-2-1.75-2a1.85,1.85,0,0,0-1.89,2Z"/><path class="cls-1" d="M13.4,21.91a2.28,2.28,0,0,0,.47.51,1.74,1.74,0,0,0,1.16.34c.94,0,1.46-.37,1.46-1.08s-.35-.87-1.5-1.1-1.48-.55-1.48-1.19.61-1.25,1.51-1.25a2.19,2.19,0,0,1,.9.18,1.55,1.55,0,0,1,.58.42l-.14.15a1.58,1.58,0,0,0-.48-.38,2,2,0,0,0-.86-.18c-.82,0-1.31.4-1.31,1.06s.37.8,1.31,1c1.24.25,1.67.59,1.67,1.3S16.07,23,15,23a2,2,0,0,1-1.26-.37,1.84,1.84,0,0,1-.51-.53Z"/><path class="cls-1" d="M18.38,16.65a.21.21,0,0,1-.22.22.22.22,0,0,1-.22-.22.21.21,0,0,1,.22-.21A.2.2,0,0,1,18.38,16.65Zm-.09,1.58a5.58,5.58,0,0,0,0,.67v3.29a5.82,5.82,0,0,0,0,.67H18a6.24,6.24,0,0,0,0-.67V18.9a6.05,6.05,0,0,0,0-.67Z"/><path class="cls-1" d="M23.86,18.23a5.58,5.58,0,0,0,0,.67v4.19a1.83,1.83,0,0,1-2,1.91,2.11,2.11,0,0,1-1.32-.37,2.32,2.32,0,0,1-.56-.69l.17-.12a2.06,2.06,0,0,0,.49.65,1.89,1.89,0,0,0,1.22.34,1.62,1.62,0,0,0,1.81-1.72v-1c0-.22,0-.53,0-.71A1.88,1.88,0,0,1,21.76,23c-1.25,0-2.06-.95-2.06-2.42a2.13,2.13,0,0,1,2.06-2.4,1.89,1.89,0,0,1,1.89,1.49c0-.21,0-.46,0-.66v-.73Zm-.24,2.3c0-1.35-.73-2.21-1.86-2.21s-1.85.85-1.85,2.21.71,2.23,1.85,2.23S23.62,21.91,23.62,20.53Z"/><path class="cls-1" d="M28.94,22.86c0-.19,0-.37,0-.67V19.9c0-1-.51-1.57-1.46-1.57a1.58,1.58,0,0,0-1.72,1.59v2.27a5.82,5.82,0,0,0,0,.67h-.26a5.82,5.82,0,0,0,0-.67V18.9a5.58,5.58,0,0,0,0-.67h.23v.37c0,.21,0,.46,0,.67h0a1.76,1.76,0,0,1,1.75-1.13,1.53,1.53,0,0,1,1.65,1.71v2.34c0,.3,0,.48,0,.67Z"/><rect class="cls-2" x="10.89" y="7.02" width="11.19" height="11.19"/><path class="cls-3" d="M15.21,8.94c0,.17,0,.33,0,.62v5c0,.28,0,.45,0,.62H15a5,5,0,0,0,0-.62v-5a4.88,4.88,0,0,0,0-.62Zm2,5.64c.28.27.51.45.72.62h-.39c-.14-.17-.32-.35-.59-.62L15.3,13l1.59-1.5c.34-.33.47-.46.6-.61h.38c-.22.17-.44.35-.73.61L15.56,13Z"/></svg>