<svg xmlns="http://www.w3.org/2000/svg" width="58.3" height="39.927" viewBox="0 0 58.3 39.927">
  <g id="グループ_277" data-name="グループ 277" transform="translate(607.486 -603.595)">
    <g id="グループ_275" data-name="グループ 275" transform="translate(-607.486 623.834)">
      <path id="パス_320" data-name="パス 320" d="M-598.37,703.586a14.409,14.409,0,0,0,.059,1.476l-.512.02v-1.615a11.6,11.6,0,0,1,.1-1.476h-.039a4.121,4.121,0,0,1-4.174,3.268c-2.757,0-4.548-2.107-4.548-5.355,0-3.17,1.831-5.3,4.548-5.3a4.151,4.151,0,0,1,4.154,3.288h.059a13.465,13.465,0,0,1-.1-1.87v-4.45a14.146,14.146,0,0,0-.059-1.477h.571a14.146,14.146,0,0,0-.059,1.477Zm-.453-3.682c0-2.973-1.615-4.883-4.115-4.883-2.52,0-4.1,1.89-4.1,4.883,0,3.012,1.575,4.942,4.1,4.942C-600.4,704.846-598.823,702.956-598.823,699.9Z" transform="translate(607.486 -690.099)" fill="#fff"/>
      <path id="パス_321" data-name="パス 321" d="M-554.778,714.572v.1c0,2.993,1.732,4.962,4.371,4.962a4.75,4.75,0,0,0,2.8-.846,3.735,3.735,0,0,0,.788-.788l.315.3a5.208,5.208,0,0,1-.748.709,5.013,5.013,0,0,1-3.15,1.044c-2.855,0-4.824-2.186-4.824-5.375,0-3.308,1.772-5.316,4.666-5.316,2.756,0,4.312,1.752,4.312,4.863v.355Zm8.072-.394c0-2.835-1.378-4.41-3.879-4.41-2.461,0-4.016,1.654-4.174,4.41Z" transform="translate(567.36 -704.885)" fill="#fff"/>
      <path id="パス_322" data-name="パス 322" d="M-507.732,717.936a4.734,4.734,0,0,0,1.024,1.142,4.021,4.021,0,0,0,2.579.748c2.067,0,3.209-.827,3.209-2.382,0-1.359-.768-1.93-3.308-2.442-2.343-.473-3.268-1.221-3.268-2.618,0-1.674,1.339-2.776,3.347-2.776a4.881,4.881,0,0,1,1.969.394,3.982,3.982,0,0,1,1.3.925l-.315.334a3.381,3.381,0,0,0-1.063-.827,4.348,4.348,0,0,0-1.89-.413c-1.811,0-2.894.886-2.894,2.363,0,1.161.807,1.752,2.894,2.166,2.737.551,3.682,1.3,3.682,2.855,0,1.772-1.378,2.835-3.682,2.835a4.447,4.447,0,0,1-2.8-.807,4.58,4.58,0,0,1-1.122-1.181Z" transform="translate(531.143 -705.08)" fill="#fff"/>
      <path id="パス_323" data-name="パス 323" d="M-462.481,693.88a.46.46,0,0,1-.473.492.476.476,0,0,1-.492-.492.471.471,0,0,1,.492-.473A.455.455,0,0,1-462.481,693.88Zm-.2,3.485a14.166,14.166,0,0,0-.059,1.477v7.285a14.43,14.43,0,0,0,.059,1.476h-.571a14.419,14.419,0,0,0,.059-1.476v-7.285a14.155,14.155,0,0,0-.059-1.477Z" transform="translate(496.879 -692.639)" fill="#fff"/>
      <path id="パス_324" data-name="パス 324" d="M-437.476,709.74a14.153,14.153,0,0,0-.059,1.477v9.273c0,2.6-1.732,4.213-4.469,4.213a4.575,4.575,0,0,1-2.914-.827,4.8,4.8,0,0,1-1.221-1.516l.374-.256a4.2,4.2,0,0,0,1.063,1.418,4.193,4.193,0,0,0,2.7.768c2.52,0,4.016-1.417,4.016-3.8v-2.126c0-.492.039-1.181.079-1.575a4.144,4.144,0,0,1-4.194,3.386c-2.757,0-4.548-2.107-4.548-5.355,0-3.17,1.831-5.3,4.548-5.3a4.188,4.188,0,0,1,4.174,3.288c-.039-.453-.059-1-.059-1.457V709.74Zm-.512,5.08c0-2.973-1.614-4.883-4.115-4.883-2.52,0-4.1,1.89-4.1,4.883,0,3.012,1.575,4.942,4.1,4.942C-439.563,719.761-437.988,717.871-437.988,714.819Z" transform="translate(483.982 -705.015)" fill="#fff"/>
      <path id="パス_325" data-name="パス 325" d="M-383.521,720.043c.039-.433.059-.827.059-1.476v-5.06c0-2.264-1.122-3.485-3.229-3.485a3.511,3.511,0,0,0-3.8,3.524v5.021a14.417,14.417,0,0,0,.059,1.476H-391a14.5,14.5,0,0,0,.059-1.476v-7.285a14.234,14.234,0,0,0-.059-1.476h.512v.827a12.391,12.391,0,0,1-.079,1.477h.059a3.909,3.909,0,0,1,3.859-2.5c2.3,0,3.642,1.378,3.642,3.78v5.178c0,.649.02,1.043.059,1.476Z" transform="translate(441.25 -705.08)" fill="#fff"/>
    </g>
    <g id="グループ_276" data-name="グループ 276" transform="translate(-580.601 608.035)">
      <path id="パス_326" data-name="パス 326" d="M-491.128,622.032a13.1,13.1,0,0,0-.055,1.365v11.1a13.347,13.347,0,0,0,.055,1.365h-.528a13.357,13.357,0,0,0,.055-1.365V623.4a13.113,13.113,0,0,0-.055-1.365Zm4.424,12.47c.637.583,1.129,1,1.6,1.365h-.874a15.675,15.675,0,0,0-1.292-1.365l-3.659-3.441,3.5-3.313A16.32,16.32,0,0,0-486.1,626.4h.837c-.473.364-.965.764-1.6,1.347l-3.5,3.3Z" transform="translate(491.656 -622.032)" fill="#fff"/>
    </g>
    <rect id="長方形_3045" data-name="長方形 3045" width="24.719" height="24.719" transform="translate(-589.623 603.804)" fill="none" stroke="#fff" stroke-miterlimit="10" stroke-width="0.419"/>
  </g>
</svg>
